<svg width="289" height="65" viewBox="0 0 289 65" fill="none" xmlns="http://www.w3.org/2000/svg">
<g clip-path="url(#clip0_424_1595)">
<path d="M18.3478 33.1713C13.2466 37.011 6.90828 39.2893 0.0392883 39.298H9.27219e-06L0 27.0399C10.1332 27.0399 18.3478 18.8077 18.3478 8.65283L30.5797 8.65284C30.5797 18.6775 25.7766 27.5779 18.3509 33.1689H30.501V45.3295H18.3478V33.1713Z" fill="#1A1A1A"/>
<path d="M137.678 23.7615C137.678 25.3846 136.51 26.5207 134.856 26.5207C133.201 26.5207 132.033 25.3846 132.033 23.7615C132.033 22.171 133.201 21.0349 134.856 21.0349C136.51 21.0349 137.678 22.171 137.678 23.7615Z" fill="#1A1A1A"/>
<path d="M113.15 21.2621V45.3478H118.016V35.9992C118.016 33.8892 119.574 32.3636 121.455 32.3636C123.402 32.3961 124.57 33.7919 124.57 35.8044V45.3478H129.436V34.7981C129.436 30.8704 126.938 28.0788 123.11 28.0788C121.098 28.0788 119.119 28.9877 118.016 30.6107V21.2621H113.15Z" fill="#1A1A1A"/>
<path d="M107.636 45.997C104.327 45.997 102.185 43.4976 102.185 39.9594V32.4285H99.8497V28.728H102.413L102.964 24.5406H107.052V28.728H110.815V32.4285H107.052V39.4725C107.052 40.8683 107.895 41.8096 109.258 41.8096C109.712 41.8096 110.426 41.7122 110.977 41.5499V45.4777C109.971 45.8023 108.674 45.997 107.636 45.997Z" fill="#1A1A1A"/>
<path fill-rule="evenodd" clip-rule="evenodd" d="M42.5423 37.0379C42.5423 31.7144 46.3055 28.0788 51.7556 28.0788C57.2381 28.0788 61.0013 31.7144 61.0013 37.0379C61.0013 42.329 57.2381 45.997 51.7556 45.997C46.3055 45.997 42.5423 42.329 42.5423 37.0379ZM47.4409 37.0379C47.4409 39.7646 49.2252 41.7122 51.7556 41.7122C54.3184 41.7122 56.1027 39.7646 56.1027 37.0379C56.1027 34.3112 54.3184 32.3636 51.7556 32.3636C49.2252 32.3636 47.4409 34.3112 47.4409 37.0379Z" fill="#1A1A1A"/>
<path d="M68.0205 45.3478H63.1543V28.728H67.8907V30.9678C69.0586 29.1825 71.005 28.0788 73.1786 28.0788C76.9093 28.0788 79.4397 30.9678 79.4397 34.9604V45.3478H74.5736V35.8044C74.5736 33.7919 73.4057 32.3636 71.4917 32.3636C69.5776 32.3636 68.0205 33.8892 68.0205 35.9992V45.3478Z" fill="#1A1A1A"/>
<path fill-rule="evenodd" clip-rule="evenodd" d="M81.2911 36.9081C81.2911 42.2641 85.0543 45.997 90.4071 45.997C94.4622 45.997 97.9659 43.6274 98.7769 40.3814L94.3973 39.7646C93.8783 41.2253 92.3536 42.2641 90.5369 42.2641C88.3309 42.2641 86.7412 40.7384 86.3195 38.4013L99.3284 38.4337C99.3933 38.0767 99.3933 37.395 99.3933 36.973C99.3933 31.7144 95.7599 28.0788 90.4395 28.0788C85.0868 28.0788 81.2911 31.7144 81.2911 36.9081ZM86.2871 35.4798C86.7088 33.2725 88.2011 31.8118 90.3422 31.8118C92.5482 31.8118 94.1703 33.3699 94.4622 35.4798H86.2871Z" fill="#1A1A1A"/>
<path d="M145.325 28.728H140.588V45.3478H145.455V35.9992C145.455 33.8892 147.012 32.3636 148.926 32.3636C150.84 32.3636 152.008 33.7919 152.008 35.8044V45.3478H156.874V34.9604C156.874 30.9678 154.343 28.0788 150.613 28.0788C148.439 28.0788 146.493 29.1825 145.325 30.9678V28.728Z" fill="#1A1A1A"/>
<path d="M132.423 45.3478V28.728H137.289V45.3478H132.423Z" fill="#1A1A1A"/>
<path fill-rule="evenodd" clip-rule="evenodd" d="M163.721 46.3541C164.143 48.2368 165.895 49.6002 167.874 49.6002C170.339 49.6002 172.091 47.9122 172.091 45.0232V43.0431C170.793 44.6337 168.912 45.5751 166.608 45.5751C162.034 45.5751 158.725 42.0693 158.725 37.0379C158.725 31.8118 162.034 28.1113 166.608 28.1113C168.944 28.1113 170.826 29.0851 172.091 30.7081V28.728H176.957V45.1531C176.957 50.3143 173.324 53.463 168.068 53.463C163.527 53.463 159.861 50.6714 159.374 46.841L163.721 46.3541ZM163.591 37.0379C163.591 39.6672 165.408 41.5824 167.939 41.5824C170.469 41.5824 172.286 39.6672 172.286 37.0379C172.286 34.3437 170.469 32.3636 167.939 32.3636C165.408 32.3636 163.591 34.3437 163.591 37.0379Z" fill="#1A1A1A"/>
<path d="M181.951 45.8672C183.606 45.8672 184.774 44.7311 184.774 43.108C184.774 41.5175 183.606 40.3814 181.951 40.3814C180.329 40.3814 179.129 41.5175 179.129 43.108C179.129 44.7311 180.329 45.8672 181.951 45.8672Z" fill="#1A1A1A"/>
<path fill-rule="evenodd" clip-rule="evenodd" d="M194.078 45.997C189.472 45.997 186.195 42.2965 186.195 37.0379C186.195 31.7793 189.472 28.0788 194.078 28.0788C196.349 28.0788 198.263 29.0526 199.561 30.7406V21.2621H204.427V45.3478H199.626V43.3353C198.328 44.9908 196.414 45.997 194.078 45.997ZM199.755 37.0379C199.755 34.4086 197.939 32.461 195.408 32.461C192.878 32.461 191.061 34.4086 191.061 37.0379C191.061 39.6997 192.91 41.6149 195.408 41.6149C197.939 41.6149 199.755 39.6672 199.755 37.0379Z" fill="#1A1A1A"/>
<path fill-rule="evenodd" clip-rule="evenodd" d="M206.599 36.9081C206.599 42.2641 210.362 45.997 215.715 45.997C219.77 45.997 223.273 43.6274 224.084 40.3814L219.705 39.7646C219.186 41.2253 217.661 42.2641 215.844 42.2641C213.638 42.2641 212.049 40.7384 211.627 38.4013L224.636 38.4337C224.701 38.0767 224.701 37.395 224.701 36.973C224.701 31.7144 221.067 28.0788 215.747 28.0788C210.394 28.0788 206.599 31.7144 206.599 36.9081ZM211.595 35.4798C212.016 33.2725 213.509 31.8118 215.65 31.8118C217.856 31.8118 219.478 33.3699 219.77 35.4798H211.595Z" fill="#1A1A1A"/>
<path d="M234.193 35.0578C237.567 35.5123 241.817 36.1939 241.817 40.0892C241.817 43.5625 238.638 46.062 233.998 46.062C229.522 46.062 226.277 43.4327 226.31 39.7971H230.43C230.43 41.4526 231.955 42.6211 234.063 42.6211C235.848 42.6211 237.145 41.7772 237.145 40.6735C237.145 39.2777 235.264 38.8882 233.252 38.6934C229.554 38.239 226.472 37.6547 226.472 33.5971C226.472 30.351 229.554 28.0139 233.609 28.0139C238.054 28.0139 241.265 30.416 241.265 33.7594H236.983C236.983 32.3961 235.523 31.4547 233.577 31.4547C232.084 31.4547 230.884 32.2338 230.852 33.3374C230.852 34.4411 232.312 34.7657 234.193 35.0578Z" fill="#1A1A1A"/>
<path d="M244.36 45.3478H249.226V28.728H244.36V45.3478Z" fill="#1A1A1A"/>
<path d="M246.793 26.5207C248.447 26.5207 249.615 25.3846 249.615 23.7615C249.615 22.171 248.447 21.0349 246.793 21.0349C245.138 21.0349 243.97 22.171 243.97 23.7615C243.97 25.3846 245.138 26.5207 246.793 26.5207Z" fill="#1A1A1A"/>
<path fill-rule="evenodd" clip-rule="evenodd" d="M256.775 46.3541C257.197 48.2368 258.949 49.6002 260.928 49.6002C263.393 49.6002 265.145 47.9122 265.145 45.0232V43.0431C263.847 44.6337 261.966 45.5751 259.662 45.5751C255.088 45.5751 251.779 42.0693 251.779 37.0379C251.779 31.8118 255.088 28.1113 259.662 28.1113C261.998 28.1113 263.88 29.0851 265.145 30.7081V28.728H270.011V45.1531C270.011 50.3143 266.378 53.463 261.122 53.463C256.581 53.463 252.915 50.6714 252.428 46.841L256.775 46.3541ZM256.645 37.0379C256.645 39.6672 258.462 41.5824 260.993 41.5824C263.523 41.5824 265.34 39.6672 265.34 37.0379C265.34 34.3437 263.523 32.3636 260.993 32.3636C258.462 32.3636 256.645 34.3437 256.645 37.0379Z" fill="#1A1A1A"/>
<path d="M272.929 45.3478H277.795V35.9992C277.795 33.8892 279.352 32.3636 281.266 32.3636C283.18 32.3636 284.348 33.7919 284.348 35.8044V45.3478H289.214V34.9604C289.214 30.9678 286.684 28.0788 282.953 28.0788C280.78 28.0788 278.833 29.1825 277.665 30.9678V28.728H272.929V45.3478Z" fill="#1A1A1A"/>
</g>
<defs>
<clipPath id="clip0_424_1595">
<rect width="289" height="64.0299" fill="white"/>
</clipPath>
</defs>
</svg>
