<?xml version="1.0" encoding="utf-8"?>
<!-- Generator: Adobe Illustrator 22.0.1, SVG Export Plug-In . SVG Version: 6.00 Build 0)  -->
<svg version="1.1" id="Layer_1" xmlns="http://www.w3.org/2000/svg" xmlns:xlink="http://www.w3.org/1999/xlink" x="0px" y="0px"
	 viewBox="0 0 629 276" style="enable-background:new 0 0 629 276;" xml:space="preserve">
<style type="text/css">
	.st0{fill:#FFFFFF;}
	.st1{fill:url(#Path-14_1_);}
	.st2{fill:url(#Path-17_1_);}
	.st3{fill:url(#Path-18_1_);}
	.st4{fill:#D7D5E5;}
	.st5{fill:url(#Path-22-Copy_1_);}
	.st6{fill:url(#Path-24-Copy-7_1_);}
	.st7{fill:url(#Path-24-Copy-8_1_);}
	.st8{fill:url(#Path-23-Copy_1_);}
	.st9{fill:url(#Path-24-Copy-5_1_);}
	.st10{fill:url(#Path-24-Copy-9_1_);}
	.st11{fill:url(#Path-24-Copy-3_1_);}
	.st12{fill:#FBFBFD;}
</style>
<polygon id="Path-15" class="st0" points="87,82.4 124.1,69.4 160.3,69.4 119.3,82.4 "/>
<linearGradient id="Path-14_1_" gradientUnits="userSpaceOnUse" x1="182.9335" y1="266.0662" x2="182.9335" y2="265.0662" gradientTransform="matrix(40.9508 0 0 -151 -7351.4844 40245.3516)">
	<stop  offset="0" style="stop-color:#D7D5E5"/>
	<stop  offset="1" style="stop-color:#EDECF4;stop-opacity:0"/>
</linearGradient>
<polygon id="Path-14" class="st1" points="119.3,84.3 160.3,69.4 160.3,220.4 119.3,220.4 "/>
<linearGradient id="Path-17_1_" gradientUnits="userSpaceOnUse" x1="182.2026" y1="266.0649" x2="182.2026" y2="265.0649" gradientTransform="matrix(35.3001 0 0 -154.1133 -6369.9971 41112.4102)">
	<stop  offset="0" style="stop-color:#D7D5E5"/>
	<stop  offset="1" style="stop-color:#EDECF4;stop-opacity:0"/>
</linearGradient>
<polygon id="Path-17" class="st2" points="44.1,109.9 79.4,108.3 79.4,262.4 44.1,262.4 "/>
<linearGradient id="Path-18_1_" gradientUnits="userSpaceOnUse" x1="167.1247" y1="266.0665" x2="167.1247" y2="265.0665" gradientTransform="matrix(9.1778 0 0 -150.3007 -1512.2424 40106.9883)">
	<stop  offset="0" style="stop-color:#D7D5E5"/>
	<stop  offset="1" style="stop-color:#EDECF4;stop-opacity:0"/>
</linearGradient>
<polygon id="Path-18" class="st3" points="17,117 26.2,117 26.2,267.3 17,267.3 "/>
<polygon id="Path-21" class="st4" points="191.8,0.2 228.2,0.2 228.2,98.2 191.8,98.2 "/>
<linearGradient id="Path-22-Copy_1_" gradientUnits="userSpaceOnUse" x1="183.4348" y1="266.06" x2="183.4348" y2="265.06" gradientTransform="matrix(46 0 0 -166.7091 -8224.8848 44452.7891)">
	<stop  offset="0" style="stop-color:#D7D5E5"/>
	<stop  offset="1" style="stop-color:#EDECF4;stop-opacity:0"/>
</linearGradient>
<polygon id="Path-22-Copy" class="st5" points="190.1,98.2 236.1,98.2 236.1,264.9 190.1,264.9 "/>
<linearGradient id="Path-24-Copy-7_1_" gradientUnits="userSpaceOnUse" x1="182.3056" y1="266.0629" x2="182.3056" y2="265.0629" gradientTransform="matrix(36 0 0 -159 -5979.7812 42410.5898)">
	<stop  offset="0" style="stop-color:#D7D5E5"/>
	<stop  offset="1" style="stop-color:#EDECF4;stop-opacity:0"/>
</linearGradient>
<polygon id="Path-24-Copy-7" class="st6" points="565.2,106.6 601.2,106.6 601.2,265.6 565.2,265.6 "/>
<linearGradient id="Path-24-Copy-8_1_" gradientUnits="userSpaceOnUse" x1="182.3056" y1="266.0629" x2="182.3056" y2="265.0629" gradientTransform="matrix(36 0 0 -159 -6274.7812 42373.5898)">
	<stop  offset="0" style="stop-color:#D7D5E5"/>
	<stop  offset="1" style="stop-color:#EDECF4;stop-opacity:0"/>
</linearGradient>
<polygon id="Path-24-Copy-8" class="st7" points="270.2,69.6 306.2,69.6 306.2,228.6 270.2,228.6 "/>
<linearGradient id="Path-23-Copy_1_" gradientUnits="userSpaceOnUse" x1="183.8333" y1="266.0437" x2="183.8333" y2="265.0437" gradientTransform="matrix(51 0 0 -228.6419 -8927.1963 60865.4023)">
	<stop  offset="0" style="stop-color:#D7D5E5"/>
	<stop  offset="1" style="stop-color:#EDECF4;stop-opacity:0"/>
</linearGradient>
<polygon id="Path-23-Copy" class="st8" points="422.8,36.7 473.8,36.7 473.8,265.3 422.8,265.3 "/>
<polygon id="Path-24-Copy" class="st4" points="506.2,69.6 537.2,69.6 537.2,115 506.2,115 "/>
<linearGradient id="Path-24-Copy-5_1_" gradientUnits="userSpaceOnUse" x1="182.3056" y1="266.0629" x2="182.3056" y2="265.0629" gradientTransform="matrix(36 0 0 -159 -5952.7812 42420.5898)">
	<stop  offset="0" style="stop-color:#D7D5E5"/>
	<stop  offset="1" style="stop-color:#EDECF4;stop-opacity:0"/>
</linearGradient>
<polygon id="Path-24-Copy-5" class="st9" points="592.2,116.6 628.2,116.6 628.2,275.6 592.2,275.6 "/>
<linearGradient id="Path-24-Copy-9_1_" gradientUnits="userSpaceOnUse" x1="182.3056" y1="266.0629" x2="182.3056" y2="265.0629" gradientTransform="matrix(36 0 0 -159 -6247.7812 42383.5898)">
	<stop  offset="0" style="stop-color:#D7D5E5"/>
	<stop  offset="1" style="stop-color:#EDECF4;stop-opacity:0"/>
</linearGradient>
<polygon id="Path-24-Copy-9" class="st10" points="297.2,79.6 333.2,79.6 333.2,238.6 297.2,238.6 "/>
<linearGradient id="Path-24-Copy-3_1_" gradientUnits="userSpaceOnUse" x1="182.5789" y1="266.0662" x2="182.5789" y2="265.0662" gradientTransform="matrix(38 0 0 -151 -6412.7871 40290.5898)">
	<stop  offset="0" style="stop-color:#D7D5E5"/>
	<stop  offset="1" style="stop-color:#EDECF4;stop-opacity:0"/>
</linearGradient>
<polygon id="Path-24-Copy-3" class="st11" points="506.2,114.6 544.2,114.6 544.2,265.6 506.2,265.6 "/>
<polygon id="Path-13" class="st12" points="87,82.4 119.3,82.4 119.3,200.7 87,200.7 "/>
<polygon id="Path-16" class="st12" points="26.2,109.9 44.1,109.9 44.1,262.4 26.2,262.4 "/>
<polygon id="Path-19" class="st12" points="17,117 0.7,117 0.7,267.3 17,267.3 "/>
<polygon id="Path-20" class="st12" points="173.5,0.2 191.8,0.2 191.8,98.2 173.5,98.2 "/>
<polygon id="Path-22" class="st12" points="166.1,98.2 190.1,98.2 190.1,264.9 166.1,264.9 "/>
<polygon id="Path-23" class="st12" points="395.8,36.7 423.1,36.7 423.1,265.3 395.8,265.3 "/>
<polygon id="Path-24-Copy-6" class="st12" points="547.2,106.6 565.2,106.6 565.2,265.6 547.2,265.6 "/>
<polygon id="Path-24-Copy-10" class="st12" points="252.2,69.6 270.2,69.6 270.2,228.6 252.2,228.6 "/>
<polygon id="Path-24" class="st12" points="492.2,69.6 507,69.6 507,115 492.2,115 "/>
<polygon id="Path-24-Copy-4" class="st12" points="574.2,116.6 592.2,116.6 592.2,275.6 574.2,275.6 "/>
<polygon id="Path-24-Copy-11" class="st12" points="279.2,79.6 297.2,79.6 297.2,238.6 279.2,238.6 "/>
<polygon id="Path-24-Copy-2" class="st12" points="486,114.6 507,114.6 507,265.6 486,265.6 "/>
</svg>
