<svg width="140" height="49" viewBox="0 0 140 49" fill="none" xmlns="http://www.w3.org/2000/svg">
<path d="M4.41714 29.7606C0.874516 28.0375 -4.46945 23.5675 10.3466 10.1319C25.1627 -3.30462 47.1478 -3.34277 49.7781 10.469C51.7848 21.0064 46.9896 28.9069 40.4374 35.5138C31.5432 44.4821 19.4331 49.3745 15.3328 47.7852C9.4428 45.5032 14.0443 36.609 14.0443 36.609C17.0503 31.0887 19.9689 30.2777 23.3488 30.7665C26.5699 31.2319 27.8221 34.4384 21.005 39.7594C14.1874 45.08 17.0503 51.8696 30.864 40.2608C44.678 28.6524 44.6067 19.8385 41.3856 15.3954C38.1648 10.9533 24.4942 19.874 18.5894 24.4961C12.6841 29.1179 7.9602 31.4833 4.41714 29.7606Z" fill="white"/>
<path d="M79.4378 7.71839C77.6458 7.71839 76.1933 9.18388 76.1933 10.9918C76.1933 12.7984 77.6458 14.2638 79.4378 14.2638C81.2291 14.2638 82.6817 12.7984 82.6817 10.9918C82.6817 9.18388 81.2291 7.71839 79.4378 7.71839Z" fill="white"/>
<path d="M136.675 33.5634C136.675 34.7269 137.568 35.6699 138.669 35.6699H139.996V39.3548H137.032C133.891 39.3548 131.344 36.6833 131.344 33.389V10.7253L136.675 9.90021V33.5634Z" fill="white"/>
<path d="M82.6817 39.3548H77.2747V17.2848L82.6817 16.4457V39.3548Z" fill="white"/>
<path d="M85.9258 20.3283V39.3548H91.101V24.2663L91.0712 22.485C91.0712 19.6692 97.0368 20.2089 97.0368 20.2089L98.9026 15.8941C90.6469 13.4071 85.9258 20.3283 85.9258 20.3283Z" fill="white"/>
<path d="M105.729 20.521V33.5634C105.729 34.7269 106.511 35.6699 107.474 35.6699H108.635V39.3548H106.041C103.294 39.3548 101.065 36.6833 101.065 33.389V10.7253L105.729 9.90021V16.4273H108.532V20.521H105.729Z" fill="white"/>
<path fill-rule="evenodd" clip-rule="evenodd" d="M116.265 28.1729C116.265 28.1729 116.004 33.6497 119.518 35.0546C123.032 36.4572 127.37 33.6958 127.37 33.6958L129.182 36.9842C127.272 38.4746 123.794 39.3548 121.254 39.3548C114.857 39.3548 110.798 34.0073 110.798 27.1309C110.798 20.2561 114.596 15.3548 120.994 15.3548C127.391 15.3548 128.976 21.2973 128.976 28.1729H116.265ZM123.9 24.0489C123.9 24.0489 123.293 19.571 120.256 19.571C117.22 19.571 116.612 24.0489 116.612 24.0489H123.9Z" fill="white"/>
<path fill-rule="evenodd" clip-rule="evenodd" d="M66.5375 16.4457C66.5375 16.4457 64.2409 16.4778 61.9271 16.9045C59.7532 17.304 57.5734 18.7396 57.5734 18.7396L59.2996 22.146C59.2996 22.146 61.527 20.1388 64.9995 20.1388C69.6306 20.1388 68.9769 24.5933 68.9769 24.5933C59.9555 22.8195 55.5237 27.2626 55.6494 31.8412C55.7051 33.9219 56.0019 36.0303 58.4688 37.5951C66.3649 42.6082 74.0305 35.3168 74.0305 35.3168V23.2219C74.0305 19.5973 70.6756 16.4457 66.5375 16.4457ZM68.8579 34.5769C68.8579 34.5769 65.2962 36.1723 63.0107 34.8609C60.7245 33.5508 60.9923 29.964 63.1439 28.8523C65.2962 27.7421 68.8579 28.4256 68.8579 28.4256V34.5769Z" fill="white"/>
</svg>
