<svg width="140" height="46" viewBox="0 0 140 46" fill="none" xmlns="http://www.w3.org/2000/svg">
<path d="M122.96 7.78459C126.966 8.18688 130.275 7.03029 133.468 5.24472C137.364 3.07043 140 0.103516 140 0.103516C140 0.103516 138.197 3.88698 134.679 6.8922C131.356 9.87188 125.394 13.0024 119.772 11.5936C120.768 10.2869 121.85 9.01701 122.96 7.78459Z" fill="white"/>
<path d="M30.4869 38.591C41.8533 35.486 48.9016 36.0639 54.0944 39.3581C56.7248 41.0295 59.8765 43.456 60.9878 45.1035C57.6505 42.6898 53.0681 41.4949 49.8914 41.7838C46.028 41.8477 44.4821 44.8018 44.4821 44.8018C40.2547 37.2218 28.1706 40.4956 23.9353 41.643C23.5131 41.7574 23.1689 41.8507 22.9182 41.9099C22.4905 42.0111 22.0305 42.1225 21.546 42.2398C18.8993 42.8809 15.5189 43.6997 12.6453 43.9972C7.79867 44.3995 3.73669 42.4758 1.78068 38.8552C-0.748431 33.6374 0.938454 27.2254 2.80448 22.7507C6.04045 15.3331 11.7601 8.55635 18.9097 3.66578C22.1789 1.69183 25.7213 -0.0929421 29.5247 0.120975C30.6353 0.322122 31.5302 0.912792 32.0481 1.76766C33.2827 4.16865 31.7126 6.74603 30.6507 8.091C29.6641 9.2859 27.3782 9.73848 27.4698 7.56339C27.5322 6.14259 28.7084 5.08657 29.1364 4.75931C29.6641 4.42087 30.3475 4.35702 30.7536 4.35702C31.1386 4.00501 31.4361 1.54097 28.2529 2.34556C24.0985 3.62827 20.9533 6.82186 17.5625 10.5431C11.487 17.6965 8.06617 24.1452 6.80081 30.8469C6.25526 34.9576 6.98562 37.8112 9.02432 39.584C13.5714 42.6761 17.1891 41.7983 25.7588 39.7188L25.7599 39.7186C27.1888 39.3718 28.7554 38.9917 30.4869 38.591Z" fill="white"/>
<path fill-rule="evenodd" clip-rule="evenodd" d="M19.7424 18.5489C24.003 12.9416 29.323 9.67293 31.9688 11.3827C34.4153 13.138 32.5339 17.5512 31.9301 18.9677C31.868 19.1132 31.8195 19.2271 31.7905 19.3032C32.7397 19.5419 35.7763 17.4051 37.5467 15.4814C38.9531 13.9473 41.3622 11.9741 42.8837 11.4082C44.021 10.867 45.7776 10.6914 46.9295 11.3699C47.702 11.8105 48.22 12.7149 48.2743 13.6711C48.4267 16.3363 45.2775 20.7112 43.6984 18.4986C43.3734 17.5432 43.7284 16.5247 44.7514 15.4687C45.2702 14.9403 45.9081 14.7016 46.705 14.7263C47.0195 14.2362 46.9392 13.5203 46.4423 13.2305C45.9219 12.916 44.8722 13.1299 43.9067 13.8715C40.4851 16.5502 37.4786 20.9882 35.7341 25.878C35.4253 26.7959 35.2567 28.1912 35.8047 29.1474C37.3035 31.4223 40.8102 28.2542 40.8102 28.2542C43.178 26.1797 45.4607 23.3006 47.2546 20.7488C51.9115 14.1109 58.0989 8.37745 60.8307 12.0995C60.8505 12.1247 60.8736 12.1578 60.8962 12.1901C60.9301 12.2386 60.9627 12.2853 60.9807 12.3006C61.0196 12.2503 61.5011 11.4457 61.5011 11.4457H65.9108C65.9108 11.4457 56.5718 27.4369 56.5596 27.4624C56.365 27.8519 56.2418 28.4426 56.5555 28.7068C56.7916 28.8704 57.1872 28.6983 57.2467 28.6724L57.2517 28.6703L57.2543 28.6693C59.6764 27.5127 63.406 22.2326 63.4239 22.2071H64.9429C62.5614 25.6018 59.614 29.5992 55.9541 32.1391C54.9392 32.8056 53.6017 33.4968 52.2812 33.0315C51.0282 32.2551 51.108 31.3066 51.2029 30.1778C51.214 30.0463 51.2253 29.912 51.2347 29.7756C51.2345 29.7756 51.2329 29.7772 51.2301 29.7804C51.2282 29.7824 51.2258 29.7851 51.2228 29.7885L51.2067 29.8067C50.8716 30.1865 47.6105 33.8822 44.8584 33.0945C43.8986 32.7928 42.3641 31.9754 43.5031 28.0778C43.5031 28.0778 43.5898 27.7266 43.6563 27.4624C43.3928 27.7138 42.9259 28.1537 42.9259 28.1537C40.1876 30.7941 37.083 33.761 33.1953 33.1201C30.5735 32.3171 30.3714 29.8591 30.2831 28.7854C30.2732 28.6648 30.2647 28.5614 30.2544 28.4801C29.9488 26.0173 32.7256 21.2226 33.1088 20.5608L33.1363 20.5132C33.1464 20.4957 33.1519 20.486 33.1523 20.4845C32.3085 20.724 31.5611 20.8996 30.9394 21.013C30.8915 21.088 29.8872 22.7227 29.8872 22.7227L29.823 22.8275C28.7494 24.5801 27.6351 26.3991 26.2021 27.915L25.9249 28.2039C23.7744 30.6807 18.7194 35.3071 15.9957 32.1263C14.1645 29.4236 15.8474 23.5776 19.7424 18.5489ZM57.1919 14.1987C56.5831 14.7263 54.0864 17.8577 53.228 19.0262C49.7796 23.6023 48.6618 26.9085 48.5694 27.99C48.537 28.3173 48.6513 28.6318 48.9406 28.8201C49.1814 28.9958 49.5429 28.971 49.7618 28.908C51.2995 28.0658 52.2423 26.859 53.1793 25.4509C53.1793 25.4509 53.8473 24.4452 53.8424 24.4572C55.9622 20.9882 58.2173 17.1281 60.1279 13.7589C60.0566 13.2058 59.2387 12.4259 57.1919 14.1987ZM29.1828 21.2013C29.2014 21.1638 29.2395 21.0505 29.2395 21.0505C29.2906 20.9379 29.3117 20.8868 29.3117 20.8493C29.3117 20.8246 29.3035 20.8118 29.2954 20.8118C27.992 20.4343 26.2467 19.6169 25.317 17.8577C25.3154 17.8414 25.3122 17.8355 25.3092 17.83L25.3079 17.8275L25.3066 17.8247C25.3059 17.8231 25.3053 17.8214 25.3048 17.8194C25.2894 17.8194 25.2489 17.8321 25.2302 17.8449C23.7476 19.9442 22.2245 22.2071 21.2647 24.7717L21.1464 25.1492C20.8116 26.2052 20.3998 27.5127 21.199 28.4554C21.576 28.9207 22.3161 28.8074 22.8519 28.6318C24.6433 27.7209 26.0803 25.8321 27.2334 24.3165L27.26 24.2816C27.26 24.2816 29.1771 21.2013 29.1828 21.2013ZM30.2025 19.3535C30.2025 19.3535 31.048 17.4426 31.0561 17.4171C31.3471 16.5622 31.6033 15.6443 31.6033 14.8277C31.6033 14.2243 31.463 13.6711 31.0934 13.2433C30.4935 12.7779 29.4616 13.0174 28.7977 13.47C28.1055 13.9848 26.5353 15.4056 26.9171 17.2159C27.1943 18.1466 28.0933 18.9257 29.2857 19.2904L29.6651 19.3535L29.6962 19.3606C29.9052 19.4082 30.0859 19.4493 30.2025 19.3535Z" fill="white"/>
<path fill-rule="evenodd" clip-rule="evenodd" d="M86.7817 23.2597C86.3561 22.3553 85.3469 21.7766 84.272 21.8396C80.7783 22.1533 77.3616 24.9822 75.5677 29.0426C74.6266 31.1299 74.1126 32.8524 73.7754 35.5934C74.8616 34.361 77.077 32.3368 79.5916 31.2305C79.5916 31.2305 79.9336 28.6028 81.6781 26.2649C82.3379 25.2967 83.66 23.7378 85.1434 24.152C86.4388 24.5799 85.9832 28.1127 84.2615 31.5322C82.9864 34.0465 81.0369 36.5616 79.0622 38.2961C77.3178 39.7544 74.7368 41.5145 72.4776 40.1567C71.0558 39.3274 70.3303 37.5921 70.4835 35.354C71.1636 29.0051 74.098 23.5997 78.2978 17.4392C82.6289 11.7193 87.4018 5.84773 93.834 2.71719C95.1448 2.06346 96.3607 1.9126 97.4104 2.31489C97.4104 2.31489 91.373 5.58352 88.4953 11.6307L88.4631 11.6981C87.7341 13.2252 86.7602 15.2653 87.7706 17.0744C88.3065 18.0298 89.2581 18.1057 90.0233 18.0554C93.5511 17.2508 95.8297 14.0069 97.6917 11.04C98.7715 8.78988 99.7312 6.55173 99.7312 4.06295C99.7312 3.76043 99.715 3.35814 99.6891 3.05642C101.374 2.1768 104.829 3.73568 104.829 3.73568C106.417 4.25331 109.059 5.96592 111.361 7.45798C112.974 8.50368 114.421 9.44112 115.22 9.78285C116.166 8.70129 117.72 7.06737 118.596 6.25001L117.329 5.48294C115.37 4.3062 113.303 3.18675 111.262 2.08149L111.043 1.96289C106.25 -0.614499 102.348 0.290656 100.362 0.994668C99.5821 1.27164 98.8679 1.51031 98.8679 1.51031C97.3942 -0.0733205 94.977 0.0767393 93.1961 0.504574C86.7914 2.31489 80.8448 6.72814 74.4685 14.3845C69.7815 20.3813 66.8747 25.5609 65.3248 30.6773C64.1299 34.1224 63.7668 39.1893 66.6826 42.1937C69.1614 44.7456 72.4484 44.1924 74.7692 43.2745C79.7991 40.836 84.319 35.5807 86.5709 29.5335C87.114 27.736 87.7171 25.1961 86.7817 23.2597ZM98.3451 4.31438C97.6796 11.8318 91.7451 16.2451 90.277 16.5963C89.387 16.7727 87.8687 16.3832 89.2241 13.2279C91.2206 8.97826 94.6276 5.3696 98.2859 3.52177C98.3743 3.83626 98.3718 4.03741 98.3451 4.31438Z" fill="white"/>
<path d="M73.1417 11.4545H68.954L66.5919 15.3896H70.7779L73.1417 11.4545Z" fill="white"/>
<path fill-rule="evenodd" clip-rule="evenodd" d="M122.18 39.12C121.944 39.8112 122.576 40.0626 123.027 39.7609C125.442 38.3644 127.395 35.5104 128.958 33.2241C129.07 33.0614 129.179 32.9017 129.286 32.7456H130.777C129.641 34.5559 125.262 41.1314 121.603 43.0926C121.485 43.1553 121.368 43.2187 121.253 43.2815C120.374 43.7594 119.565 44.1996 118.524 44.0105C116.806 43.7966 116.721 41.659 117.034 40.4649C116.058 41.4834 113.953 43.4694 112.064 43.9722C110.419 44.2867 108.263 43.6458 108.857 39.547C106.087 42.9665 102.682 45.5567 100.626 43.0551C99.1858 41.2823 99.891 38.2899 101.415 33.8894C101.415 33.8894 101.927 32.3816 101.985 32.1924C101.963 32.1804 101.957 32.1804 101.944 32.1804C101.105 32.3923 100.038 32.4524 99.6691 32.4732C99.6015 32.477 99.5574 32.4795 99.5425 32.4813C97.1382 36.6304 94.0887 41.169 89.7235 43.4319C89.0815 43.7591 87.4465 44.4376 86.1479 43.7839C84.885 43.0798 84.3905 41.6718 84.6337 39.4848C84.979 36.6935 86.2249 34.2542 87.4741 31.9793C89.7981 28.3962 93.0187 24.046 97.3271 22.2859C98.2885 21.8589 99.7151 21.5947 100.869 22.1598C101.854 22.8638 102.118 23.8823 102.118 24.9639C102.118 25.4668 102.058 25.9824 101.993 26.4853C101.618 28.2453 100.868 29.8672 100.273 31.0733C100.56 31.2625 102.248 30.873 102.684 30.5457C108.711 18.1497 115.607 9.07254 123.772 2.77395L123.836 2.73644C125.424 1.66765 127.398 0.347423 129.209 0.687456C129.765 0.78803 130.189 1.22784 130.289 1.80653C130.586 3.60408 129.782 5.11267 129.056 6.45764C128.43 6.65879 127.478 6.83519 127.478 6.83519L128.15 5.47745C128.63 4.54675 129.047 3.7294 128.994 2.62309C128.854 2.33415 128.693 2.32137 128.566 2.33414C127.373 2.5728 125.843 4.03112 124.366 5.45191L123.409 6.35707C117.339 12.3284 110.204 24.813 109.099 27.4279C111.591 26.2338 119.814 18.2127 123.832 12.6932C124.655 12.6684 125.352 12.5295 125.352 12.5295C124.708 13.7747 120.306 19.3438 115.082 24.2599C112.675 26.5356 110.026 28.6093 107.707 30.1937C106.566 32.6202 105.433 35.2982 104.945 38.1142C104.891 38.5038 104.761 40.176 106.023 40.0754C107.637 39.7234 110.547 34.9837 110.547 34.9837L110.656 34.8163C113.403 30.5792 116.88 25.2168 121.621 22.4871C122.727 21.8709 124.329 21.5444 125.42 22.2229C125.675 22.3865 126.294 23.128 126.5 23.4673C126.5 23.4673 126.955 22.6882 127.167 22.3115H131.635L125.112 33.7393C125.112 33.7393 122.77 37.3599 122.18 39.12ZM89.8743 38.1518C89.8824 38.554 89.9586 38.9436 90.1913 39.2836C92.1262 41.4962 96.7653 35.1218 98.1182 32.1549C97.0296 31.6895 95.2252 30.671 94.4283 28.8487H94.4243C92.5234 31.3 89.8297 35.6877 89.8743 38.1518ZM96.0382 28.1072C96.4776 30.1809 98.7521 30.9352 98.8818 30.8474C99.5952 29.6278 100.176 28.2573 100.556 26.862L100.566 26.7742L100.573 26.7226C100.62 26.3471 100.671 25.9386 100.671 25.5418C100.671 24.8633 100.527 24.2343 99.9956 23.8823C99.4225 23.6812 98.6411 23.8193 98.1231 24.2216C96.9145 24.9256 95.6653 26.3216 96.0382 28.1072ZM116.697 38.8685C116.697 38.8685 117.127 38.491 117.129 38.491C119.338 35.7883 121.103 32.708 122.806 29.7284C122.891 29.5808 122.977 29.4327 123.062 29.284C123.852 27.9131 124.665 26.5018 125.514 25.1523C125.553 25.0892 125.621 24.8881 125.621 24.813C125.621 24.5744 125.446 24.3349 125.297 24.1968C124.647 23.9326 124.031 24.2719 123.464 24.6742C120.155 27.2807 117.884 31.015 115.935 34.2212L115.83 34.393L115.654 34.757L115.64 34.7855C114.96 36.1726 114.261 37.5964 114.296 39.1327C114.331 39.3459 114.48 39.6228 114.69 39.6979C115.437 39.981 116.059 39.432 116.66 38.9015L116.697 38.8685Z" fill="white"/>
</svg>
