<svg width="210" height="33" viewBox="0 0 210 33" fill="none" xmlns="http://www.w3.org/2000/svg">
<path d="M62.2417 32.706C61.6239 32.706 60.9906 32.6742 60.3608 32.6123C56.758 32.2373 53.3749 30.6764 50.7274 28.1677C47.5744 25.1025 45.8411 20.8295 45.9539 16.3993C46.0834 12.8945 47.2732 9.51542 49.3613 6.72129C50.6961 4.93373 52.406 3.47031 54.3672 2.43713C56.8056 1.1983 59.4923 0.546257 62.219 0.53143C62.3387 0.53143 62.468 0.53143 62.5901 0.53143C67.4071 0.566433 71.9669 2.74303 75.0658 6.48673L75.1376 6.58031L71.1136 13.1263L70.8454 12.803L70.6574 12.5915L70.291 12.2002L69.9917 11.9C68.5993 10.5412 65.7497 8.25995 62.3088 8.25995H62.1495C57.693 8.3381 54.1183 12.0231 54.1098 16.5475C54.1098 20.3152 56.3415 24.7403 62.6296 24.8388H62.7218C66.3783 24.8388 68.7681 22.1127 69.866 20.4878L70.1055 20.1231C70.2384 19.9129 70.5473 19.3939 71.0525 18.5432L81.2306 1.15005H89.4655V32.0082H81.8867V27.3789L75.8488 27.3522H75.0431L74.8227 27.3619L74.7844 27.3692L74.6216 27.5515L74.4276 27.7544L74.1535 28.0242L73.9236 28.2394L73.6578 28.4824L73.3585 28.7377C70.2117 31.3169 66.2862 32.7182 62.2417 32.706ZM82.0424 13.9345L77.98 20.9229H82.0424V13.9345ZM167.548 32.6913C163.237 32.7921 159.083 31.0585 156.088 27.91V32.0289H139.075V1.15491H146.903V25.2058H153.976C152.349 22.5233 151.516 19.4235 151.572 16.2741C151.566 14.1821 151.978 12.1106 152.784 10.1851C153.6 8.25193 154.792 6.50496 156.286 5.04773C159.298 2.05003 163.375 0.412202 167.593 0.504691C171.738 0.504813 175.718 2.14908 178.685 5.08663C180.556 6.90178 181.956 9.16017 182.755 11.6593V1.14884H189.87L201.696 18.2977V1.14884H209.583V32.0289H202.654L190.642 14.8254V32.0289H182.76V21.4443C182.035 23.8565 180.742 26.0532 178.992 27.8444C175.986 30.9732 171.853 32.7235 167.548 32.6913ZM167.636 8.18703C165.451 8.16855 163.346 9.02478 161.778 10.5704C160.239 12.0905 159.375 14.1798 159.383 16.3592C159.374 18.6625 160.264 20.8757 161.859 22.5138C163.355 24.075 165.4 24.9687 167.545 24.998C169.695 25.0138 171.758 24.1396 173.26 22.577C174.821 20.8989 175.672 18.6668 175.63 16.3592C175.64 11.8644 172.064 8.20842 167.636 8.18703ZM120.697 32.0301H112.83V1.14641H120.697V12.8723H128.797V1.14641H136.67V32.0277H128.797V20.2131H120.697V32.0301ZM105.094 32.0301H97.2299V8.51882H91.1094V1.13668H111.207V8.51882H105.101V32.0277L105.094 32.0301ZM12.3246 32.0301H0.25V1.15005H11.2506C16.296 1.15005 19.883 1.75773 23.2833 4.83869C25.7548 7.12091 27.342 10.2242 27.7588 13.5893V1.15005H45.2678V7.94274L35.6345 7.95368V12.9987L43.976 12.9914V19.6321L35.6345 19.6406V25.2374H45.2678V32.0082H27.7576V19.6978C27.2729 22.9632 25.7071 25.9638 23.318 28.2053C19.8854 31.42 16.8048 32.0289 12.3282 32.0289L12.3246 32.0301ZM8.12453 7.7896V25.2471H11.2866C14.3432 25.2471 16.533 24.5592 17.9818 23.1446C19.4305 21.7299 20.1584 19.5349 20.1584 16.4843C20.1584 10.8778 16.9952 7.7896 11.2506 7.7896H8.12453Z" fill="white"/>
</svg>
