<svg width="209" height="32" viewBox="0 0 209 32" fill="none" xmlns="http://www.w3.org/2000/svg">
<path d="M64.1699 31.0271V0.280762H73.8793V12.6198H77.1158V0.280762H86.6228V31.0271H77.1158V21.52C77.1158 21.52 77.1158 20.7109 75.4975 20.7109C73.8793 20.7109 73.4747 21.52 73.4747 21.52V31.0271H64.1699Z" fill="white"/>
<path d="M87.2297 9.78785V0.280762H108.469V9.78785H102.603V31.0271H92.8935V9.78785H87.2297Z" fill="white"/>
<path d="M115.953 31.0271V0.280762H127.483L130.598 14.4403L133.754 0.280762H145.081V31.0271H136.383V17.0699L133.349 31.0271H126.876L123.438 17.0699V31.0271H115.953Z" fill="white"/>
<path d="M154.588 8.16963C149.796 8.16963 147.603 11.5956 146.835 13.2112C146.581 13.7467 146.497 14.3373 146.497 14.9302V24.9019C146.497 25.4761 146.576 26.0485 146.819 26.5687C147.589 28.2172 149.884 31.8362 155.195 31.8362C161.204 31.8362 162.426 27.513 162.639 26.4207C162.671 26.2558 162.68 26.0882 162.68 25.9203V22.7337H157.589C156.937 22.7337 156.409 23.262 156.409 23.9137V25.161C156.409 25.161 156.207 25.7679 155.195 25.7679C154.184 25.7679 153.982 25.161 153.982 25.161V22.4978C153.982 21.8461 154.51 21.3177 155.162 21.3177H162.68V14.7513C162.68 14.2769 162.612 13.8056 162.417 13.3733C161.723 11.8386 159.548 8.16963 154.588 8.16963Z" fill="white"/>
<path d="M173.198 9.26354V0.280762H180.48V31.0271H174.614V29.4089C174.614 29.4089 174.614 31.8362 170.164 31.8362C169.081 31.8362 168.165 31.5007 167.4 30.993C164.111 28.8104 164.096 24.1699 164.096 20.2226V17.1654C164.096 15.0818 164.1 12.8985 165.19 11.1227C165.989 9.82069 167.334 8.57418 169.557 8.57418C172.095 8.57418 172.947 8.93528 173.198 9.26354Z" fill="white"/>
<path d="M182.301 31.0271V8.77646H189.583V31.0271H182.301Z" fill="white"/>
<path d="M189.583 7.36051H182.301V0.280762H189.583V7.36051Z" fill="white"/>
<path d="M197.876 17.4744H191.403L191.523 16.2201C191.708 14.2769 192.517 12.4459 193.83 11.0015L194.147 10.7582C195.647 9.60436 197.486 8.97874 199.379 8.97874H200.53C202.069 8.97874 203.544 9.58994 204.632 10.6779C206.264 12.3098 207.181 14.5231 207.181 16.831V24.7397C207.181 25.4497 207.694 26.0557 208.395 26.1724V31.0271H206.345C204.429 31.0271 202.603 30.2192 201.315 28.802C201.315 28.802 201.113 30.0157 199.697 31.0271C198.281 32.0385 194.437 31.8362 193.224 31.0271C191.505 29.8812 190.93 27.709 190.801 25.6473L190.796 25.5656C190.926 23.7478 191.733 22.025 193.191 20.9319C193.789 20.4836 194.439 20.0357 195.044 19.6995C196.865 18.6881 199.697 17.879 199.697 17.879V15.0471C199.697 15.0471 199.697 14.4403 198.887 14.4403C198.078 14.4403 197.876 15.0471 197.876 15.0471V17.4744Z" fill="white"/>
<path d="M199.698 26.5771V22.127H199.556C198.883 22.127 198.252 22.4519 197.861 22.9995C197.608 23.3529 197.473 23.7764 197.473 24.2107V25.6049C197.473 26.1947 197.824 26.7277 198.366 26.9601C198.689 27.0986 199.062 27.0539 199.343 26.8429L199.698 26.5771Z" fill="#E91010"/>
<path d="M170.972 24.1491V15.2488C170.972 15.2488 171.174 14.0352 172.186 14.0352C173.197 14.0352 173.197 15.2488 173.197 15.2488V24.1491C173.197 24.1491 173.197 25.3628 172.186 25.3628C171.174 25.3628 170.972 24.1491 170.972 24.1491Z" fill="#E91010"/>
<path d="M155.414 14.4472C155.264 14.3275 155.062 14.2378 154.792 14.2378C154.523 14.2378 154.321 14.3275 154.171 14.4472C153.794 14.7483 153.781 15.2908 153.781 15.7733V16.5456C153.781 17.028 153.794 17.5705 154.171 17.8717C154.321 17.9914 154.523 18.0811 154.792 18.0811C155.062 18.0811 155.264 17.9914 155.414 17.8717C155.79 17.5705 155.804 17.028 155.804 16.5456V15.7733C155.804 15.2908 155.79 14.7483 155.414 14.4472Z" fill="#E91010"/>
<path d="M31.3987 30.8245V0.078125H45.3559V30.8245H31.3987Z" fill="white"/>
<path d="M46.7719 30.8245V0.078125H60.7291V30.8245H46.7719Z" fill="white"/>
<path d="M0.25 14.6432V0.0791016H29.7827V14.6432H0.25Z" fill="white"/>
<path d="M0.25 30.8254V16.2614H29.7827V30.8254H0.25Z" fill="white"/>
</svg>
