<svg width="206" height="52" viewBox="0 0 206 52" fill="none" xmlns="http://www.w3.org/2000/svg">
<path fill-rule="evenodd" clip-rule="evenodd" d="M187.686 42.4414C187.686 43.2854 187.64 45.2702 185.363 45.2702C184.465 45.2702 183.726 44.8878 183.726 43.8525C183.726 42.1315 185.706 41.9601 187.409 41.9601H187.686V42.4414ZM187.779 45.923H188.736C188.673 45.3759 188.649 44.8251 188.663 44.2746V40.8061C188.663 38.762 187.845 37.8784 185.897 37.8784C185.1 37.9092 184.315 38.0927 183.587 38.4191V39.3621C184.275 38.9189 185.079 38.6894 185.897 38.7027C187.218 38.7027 187.686 39.3621 187.686 40.7204V41.1226H187.501C185.468 41.1226 182.663 41.2479 182.663 43.8789C182.663 44.5911 183.02 46.1011 185.251 46.1011C185.761 46.1135 186.265 45.9845 186.706 45.7285C187.148 45.4725 187.51 45.0993 187.752 44.6504V44.6504L187.779 45.923Z" fill="white"/>
<path fill-rule="evenodd" clip-rule="evenodd" d="M167.119 42.4414C167.119 43.2854 167.073 45.2702 164.789 45.2702C163.898 45.2702 163.158 44.8878 163.158 43.8525C163.158 42.1315 165.139 41.9601 166.842 41.9601H167.119V42.4414ZM167.211 45.923H168.168C168.1 45.3763 168.074 44.8253 168.089 44.2746V40.8061C168.089 38.762 167.271 37.8784 165.33 37.8784C164.532 37.9092 163.748 38.0927 163.02 38.4191V39.3621C163.707 38.9181 164.511 38.6886 165.33 38.7027C166.65 38.7027 167.119 39.3621 167.119 40.7204V41.1226H166.934C164.901 41.1226 162.089 41.2479 162.089 43.8789C162.089 44.5911 162.445 46.1011 164.683 46.1011C165.193 46.113 165.695 45.9838 166.136 45.7277C166.576 45.4717 166.937 45.0988 167.178 44.6504V44.6504L167.211 45.923Z" fill="white"/>
<path d="M157.56 45.923H158.53V42.0392C158.53 40.6215 158.953 38.8939 160.511 38.8939C160.751 38.8928 160.991 38.9238 161.223 38.9862V37.9707C161.008 37.9149 160.786 37.8839 160.563 37.8784C159.56 37.8784 158.9 38.6961 158.543 39.5731H158.51V38.063H157.54C157.595 38.6482 157.615 39.2361 157.6 39.8236L157.56 45.923Z" fill="white"/>
<path fill-rule="evenodd" clip-rule="evenodd" d="M125.138 42.4414C125.138 43.2854 125.092 45.2702 122.808 45.2702C121.917 45.2702 121.171 44.8878 121.171 43.8525C121.171 42.1315 123.151 41.9601 124.861 41.9601H125.138V42.4414ZM125.23 45.923H126.181C126.119 45.3759 126.094 44.8251 126.108 44.2746V40.8061C126.108 38.762 125.29 37.8784 123.349 37.8784C122.549 37.9091 121.763 38.0927 121.032 38.4191V39.3621C121.722 38.918 122.529 38.6885 123.349 38.7027C124.669 38.7027 125.138 39.3621 125.138 40.7204V41.1226H124.953C122.913 41.1226 120.108 41.2479 120.108 43.8789C120.108 44.5911 120.465 46.1011 122.702 46.1011C123.212 46.113 123.714 45.9838 124.155 45.7277C124.595 45.4717 124.956 45.0988 125.197 44.6504H125.23V45.923Z" fill="white"/>
<path fill-rule="evenodd" clip-rule="evenodd" d="M91.7179 42.4414C91.7179 43.2854 91.6717 45.2702 89.3878 45.2702C88.4967 45.2702 87.7574 44.8878 87.7574 43.8525C87.7574 42.1315 89.7377 41.9601 91.4407 41.9601H91.7179V42.4414ZM91.8103 45.923H92.7608C92.6928 45.3763 92.6664 44.8253 92.6816 44.2746V40.8061C92.6816 38.762 91.8631 37.8784 89.9225 37.8784C89.1248 37.9092 88.3405 38.0927 87.6122 38.4191V39.3621C88.2994 38.9174 89.1039 38.6878 89.9225 38.7027C91.2427 38.7027 91.7113 39.3621 91.7113 40.7204V41.1226H91.5265C89.4868 41.1226 86.6815 41.2479 86.6815 43.8789C86.6815 44.5911 87.038 46.1011 89.2756 46.1011C89.785 46.113 90.2878 45.9838 90.7282 45.7277C91.1686 45.4717 91.5295 45.0988 91.7707 44.6504H91.8037L91.8103 45.923Z" fill="white"/>
<path fill-rule="evenodd" clip-rule="evenodd" d="M74.0542 41.993C74.0542 40.1731 74.9585 38.6961 76.6549 38.6961C78.3513 38.6961 79.2622 40.1599 79.2622 41.993C79.2622 43.8262 78.3513 45.29 76.6549 45.29C74.9585 45.29 74.0542 43.8064 74.0542 41.993ZM72.9849 41.993C72.9849 44.1361 74.1136 46.1077 76.6549 46.1077C79.1962 46.1077 80.325 44.1295 80.325 41.993C80.325 39.8566 79.2028 37.8784 76.6549 37.8784C74.107 37.8784 72.9585 39.85 72.9585 41.993H72.9849Z" fill="white"/>
<path d="M140.418 45.9233H141.388V41.5779C141.388 40.2591 141.943 38.7095 143.718 38.7095C145.039 38.7095 145.58 39.6656 145.58 41.1427V45.9233H146.55V40.8987C146.55 39.1777 145.811 37.8787 143.87 37.8787C143.331 37.8327 142.792 37.9628 142.334 38.2494C141.876 38.536 141.523 38.9636 141.329 39.4678H141.296V38.0633H140.352C140.406 38.6794 140.428 39.2978 140.418 39.9162V45.9233Z" fill="white"/>
<path d="M190.974 45.923H191.944V41.5775C191.944 40.2587 192.505 38.7092 194.274 38.7092C195.594 38.7092 196.142 39.6653 196.142 41.1423V45.923H197.113V40.8984C197.113 39.1773 196.373 37.8783 194.433 37.8783C193.893 37.832 193.353 37.9618 192.893 38.2484C192.434 38.535 192.08 38.9628 191.885 39.4675V38.063H190.914C190.974 38.7224 190.974 39.3158 190.974 39.9159V45.923Z" fill="white"/>
<path d="M85.5521 38.0632H83.7632V35.8345L82.7929 36.1708V38.0632H81.2484V38.8941H82.7929V43.5098C82.7929 44.9473 82.8523 46.1474 84.5817 46.1474C84.9873 46.143 85.3891 46.0693 85.7699 45.9298L85.7039 45.1254C85.4233 45.2493 85.1195 45.3122 84.8128 45.31C84.0273 45.31 83.7632 44.7297 83.7632 43.9912V38.9073H85.5521V38.0632Z" fill="white"/>
<path fill-rule="evenodd" clip-rule="evenodd" d="M175.798 36.0916H177.25C178.161 36.0916 179.593 36.3092 179.593 37.8654C179.593 39.5732 178.101 39.8436 176.953 39.8436H175.765L175.798 36.0916ZM175.798 40.7931H176.735C178.306 40.7931 179.956 40.9909 179.956 42.9032C179.956 44.611 178.339 44.9935 176.907 44.9935H175.798V40.7931ZM174.735 45.9232H176.874C179.111 45.9232 181.026 45.1978 181.026 42.857C181.037 42.2217 180.808 41.6056 180.385 41.1314C179.961 40.6572 179.375 40.3598 178.742 40.2985V40.2656C179.033 40.2368 179.316 40.1505 179.574 40.0116C179.832 39.8726 180.06 39.6838 180.244 39.4562C180.428 39.2286 180.566 38.9667 180.648 38.6856C180.73 38.4046 180.755 38.1101 180.722 37.8192C180.722 35.7553 179.078 35.1816 177.316 35.1816H174.761L174.735 45.9232Z" fill="white"/>
<path d="M107.111 45.9166H108.174V36.2301H108.207L112.247 45.9166H113.158L117.072 36.2301H117.098V45.9166H118.168V35.1685H116.643L112.696 44.6242L108.761 35.1685H107.111V45.9166Z" fill="white"/>
<path d="M64.4167 45.9166H65.4795V40.5425L70.6875 45.9166H72.1528L66.496 40.2326L71.7106 35.1685H70.3178L65.4795 39.9886V35.1685H64.4167V45.9166Z" fill="white"/>
<path fill-rule="evenodd" clip-rule="evenodd" d="M137.969 34.6733H136.986V35.9921H137.963L137.969 34.6733ZM136.986 45.9226H137.963V38.0626H136.986V45.9226Z" fill="white"/>
<path d="M199.547 45.9161H200.524V41.8806L204.406 45.9161H205.746L201.449 41.5443L205.284 38.0627H204.036L200.524 41.2806V34.3701H199.547V45.9161Z" fill="white"/>
<path fill-rule="evenodd" clip-rule="evenodd" d="M149.594 41.9927C149.594 40.4695 150.069 38.6957 151.917 38.6957C153.646 38.6957 154.247 40.5486 154.247 41.9927C154.247 43.4368 153.646 45.2897 151.917 45.2897C150.069 45.2699 149.594 43.5159 149.594 41.9927ZM155.217 34.3701H154.247V39.3881C154.029 38.9268 153.681 38.5385 153.247 38.2705C152.812 38.0025 152.309 37.8662 151.798 37.8781C149.488 37.8781 148.557 39.6057 148.557 41.9927C148.557 44.3797 149.64 46.1074 151.798 46.1074C152.304 46.1413 152.808 46.0222 153.245 45.7658C153.681 45.5094 154.031 45.1275 154.247 44.6699V44.6699V45.9227H155.217V34.3701Z" fill="white"/>
<path d="M95.0045 45.9161H95.9748V41.8806L99.8627 45.9161H101.203L96.8989 41.5443L100.741 38.0627H99.493L95.9748 41.2806V34.3701H95.0045V45.9161Z" fill="white"/>
<path d="M128.406 45.923H129.376V41.7094C129.376 40.3379 129.977 38.7026 131.706 38.7026C133.303 38.7026 133.567 39.8763 133.567 41.2347V45.9164H134.538V41.2149C134.538 39.2763 133.97 37.8718 131.858 37.8718C131.346 37.8585 130.841 37.9943 130.406 38.2623C129.97 38.5304 129.621 38.9194 129.402 39.3818V34.3638H128.406V45.923Z" fill="white"/>
<path d="M29.6837 51.5807C46.0775 51.5807 59.3673 40.1644 59.3673 26.0818C59.3673 11.9992 46.0775 0.583008 29.6837 0.583008C13.2898 0.583008 0 11.9992 0 26.0818C0 40.1644 13.2898 51.5807 29.6837 51.5807Z" fill="white"/>
<path d="M26.0797 8.77296L32.9709 6.49805L33.0105 43.7341L26.0533 46.0684L26.0797 8.77296Z" fill="#E91010"/>
<path d="M30.1725 31.9968C27.1757 35.6103 24.278 39.2963 18.8521 39.2963C11.1887 39.2963 7.55164 31.8913 7.55164 25.7062C7.55164 19.7716 10.3966 12.7227 17.862 12.7227C21.0964 12.7227 24.2186 14.7008 26.0734 16.7911V21.8421C23.8353 20.5858 21.3367 19.8637 18.7729 19.732C14.0402 19.6529 9.8685 21.7102 9.94111 26.3721C9.98732 29.59 13.1755 31.7726 16.3504 31.7726C21.2086 31.7726 24.146 27.3415 26.608 23.9719C27.2681 23.0949 29.2484 20.5101 29.5322 20.0947C32.2583 16.2834 35.4201 12.8018 40.8459 12.8018C47.2355 12.8018 50.8263 17.9451 51.8428 23.2466H48.9583C48.3128 22.3754 47.4692 21.6699 46.4971 21.1884C45.5251 20.7068 44.4523 20.4631 43.3674 20.4771C38.3508 20.4771 35.3475 25.0929 32.8062 28.4888C32.8326 28.5218 30.8787 31.1593 30.1725 31.9968ZM52.0012 28.6537C51.3411 33.9816 48.3642 39.3622 41.836 39.3754C38.0208 39.3754 35.0438 36.7708 32.9778 33.5793V29.8867C35.5587 31.1659 37.9746 32.5243 40.8987 32.5836C44.5027 32.6364 47.7635 31.2649 49.1167 28.6273L52.0012 28.6537Z" fill="#E91010"/>
<path fill-rule="evenodd" clip-rule="evenodd" d="M91.2958 26.2402C88.4905 26.2402 87.3353 23.9126 87.3353 21.3145C87.3353 18.7165 88.4838 16.3559 91.2958 16.3559C94.1077 16.3559 95.2562 18.6836 95.2562 21.3145C95.2562 23.9455 94.0813 26.2402 91.2958 26.2402ZM91.2958 30.4933C97.111 30.4933 101.534 27.1172 101.534 21.3145C101.534 15.5119 97.111 12.083 91.2958 12.083C85.4805 12.083 81.058 15.4591 81.058 21.3145C81.058 27.17 85.5003 30.4999 91.2958 30.4999V30.4933Z" fill="white"/>
<path fill-rule="evenodd" clip-rule="evenodd" d="M121.5 24.5654C121.5 22.8576 123.144 22.2048 125.229 22.2048C126.154 22.2048 127.038 22.2773 127.824 22.3103C127.824 24.394 126.358 26.5107 124.035 26.5107C122.596 26.4843 121.5 25.7655 121.5 24.5654ZM133.909 30.1967C133.663 28.8106 133.55 27.404 133.573 25.9963V19.343C133.573 13.9162 129.612 11.971 125.091 11.971C122.661 11.9162 120.245 12.3443 117.982 13.2304L118.081 17.3978C119.83 16.4832 121.784 16.0293 123.757 16.079C125.982 16.079 127.791 16.7384 127.824 19.1518C126.876 18.9987 125.918 18.9193 124.959 18.9144C121.658 18.9144 115.757 19.5738 115.757 24.994C115.757 28.8515 118.906 30.5989 122.424 30.5989C124.959 30.5989 126.668 29.6032 128.068 27.3876H128.134C128.134 28.3042 128.239 29.2274 128.272 30.1835L133.909 30.1967Z" fill="white"/>
<path d="M136.075 30.0842H142.154V21.3801H142.22L147.085 30.0842H154.452L147.831 20.5691L153.943 12.5047H147.29L142.22 19.8965H142.154V6.44482L136.075 8.5483V30.0842Z" fill="white"/>
<path d="M64.8723 30.0842H70.9516V21.3801H71.0242L75.889 30.0842H83.2488L76.6283 20.5691L82.7472 12.5047H76.087L71.0242 19.8965H70.9516V6.44482L64.8723 8.44939V30.0842Z" fill="white"/>
<path d="M100.971 16.7575H104.456V23.9054C104.456 28.0925 105.777 30.4993 111.209 30.4993C112.489 30.4696 113.765 30.3573 115.031 30.163L114.826 26.2067C114.215 26.3344 113.595 26.4137 112.971 26.4441C111.044 26.4441 110.536 25.3626 110.536 23.2394V16.7575H114.793V12.5044H110.536V6.4248L104.562 8.55466V12.511H100.978L100.971 16.7575Z" fill="white"/>
</svg>
