<svg width="209" height="60" viewBox="0 0 209 60" fill="none" xmlns="http://www.w3.org/2000/svg">
<path d="M60.1378 29.68C60.1248 33.6365 59.3194 37.5503 57.7692 41.1904C56.2189 44.8305 53.9552 48.1232 51.1116 50.8742C48.268 53.6252 44.9022 55.7787 41.2128 57.2077C37.5233 58.6366 33.585 59.312 29.6303 59.1941C13.3604 58.7111 0.273869 45.187 0.851417 28.4973C1.3856 13.1932 14.003 -0.332798 31.15 0.00624007C47.142 0.323596 60.1043 13.2543 60.1378 29.68ZM13.5989 47.7358C13.6324 47.0498 13.6777 46.5274 13.6777 46.0051C13.6777 39.5456 13.6462 33.0861 13.6915 26.6267C13.7408 19.8636 18.5169 14.1512 26.1098 14.3937C30.878 14.5455 35.0352 17.3307 36.6555 21.817C37.1365 23.1889 37.4277 24.6201 37.5208 26.0708C37.6785 28.2962 37.6213 30.5355 37.6174 32.7727C37.6174 34.1703 36.6535 35.211 35.4018 35.2702C33.9412 35.3392 32.9694 34.5172 32.8669 33.0093C32.7821 31.7595 32.8255 30.502 32.7821 29.2483C32.7329 27.8468 32.7703 26.4276 32.5555 25.0478C32.0035 21.4997 29.4391 19.3531 25.755 19.2092C22.4257 19.0791 19.6641 21.1232 18.8421 24.4466C18.5893 25.5207 18.4655 26.6212 18.4735 27.7246C18.4597 35.3392 18.4952 42.9537 18.4952 50.5683C18.4952 51.0848 18.6411 51.3706 19.1161 51.611C24.1564 54.1479 29.441 54.9837 35.0056 53.9626C52.9983 50.659 61.3501 29.5341 50.4378 14.8904C49.5212 13.6585 48.437 12.5507 47.4298 11.3857L47.2327 11.5079C47.2228 11.7228 47.2031 11.9376 47.2011 12.1525C47.1827 17.3537 47.1663 22.5556 47.1519 27.7581C47.1519 29.5321 47.2268 31.3279 47.1361 33.1058C46.801 39.6107 42.6655 44.1029 36.4169 44.8027C29.7899 45.5438 23.9297 40.8407 23.3778 34.1939C23.157 31.5467 23.2575 28.8718 23.222 26.2107C23.2276 25.9848 23.2668 25.7609 23.3383 25.5465C23.6596 24.4407 24.6255 23.8296 25.9008 23.9163C27.0421 23.9932 27.7931 24.6831 27.9134 25.8658C28.008 26.7863 28.01 27.7187 28.0553 28.6451C28.1519 30.6458 28.0435 32.684 28.3924 34.6414C28.9522 37.7834 31.152 39.5693 34.4754 39.999C35.8451 40.1809 37.2377 39.9431 38.4695 39.3171C39.7012 38.691 40.7141 37.706 41.3744 36.4923C42.1392 35.0593 42.3738 33.5001 42.3757 31.9034C42.3757 24.1627 42.3757 16.42 42.3955 8.67932C42.3955 8.04658 42.1688 7.75286 41.6366 7.48084C36.999 5.12005 31.7358 4.27948 26.5936 5.07835C21.4514 5.87722 16.6913 8.27497 12.9885 11.9315C9.28576 15.588 6.82837 20.3176 5.96494 25.4494C5.10151 30.5811 5.87587 35.8544 8.1782 40.5213C9.50538 43.2517 11.3458 45.7011 13.5989 47.7358V47.7358Z" fill="white"/>
<path d="M208.195 16.8989V22.4181H207.373C202.338 22.4181 197.304 22.3925 192.272 22.4378C191.142 22.4596 190.018 22.607 188.921 22.8774C187.541 23.2046 186.681 24.1704 186.334 25.5503C186.191 26.1317 186.098 26.7329 185.968 27.3874H208.167V32.7765H186.09C185.968 35.5696 187.622 37.4718 190.385 37.7931C190.86 37.8469 191.337 37.8732 191.814 37.8719C196.95 37.8719 202.085 37.8719 207.219 37.8719H208.161V43.3281C208.093 43.3599 208.021 43.3818 207.946 43.3931C202.183 43.3931 196.415 43.5193 190.657 43.3301C186.39 43.1901 182.995 41.3589 181.351 37.117C180.667 35.3541 180.342 33.4722 180.395 31.582C180.453 29.3309 180.421 27.0365 180.855 24.8446C181.746 20.3287 184.685 17.7484 189.277 17.1433C190.698 16.9629 192.129 16.8721 193.561 16.8713C198.242 16.8397 202.924 16.8594 207.605 16.8614C207.785 16.8732 207.954 16.887 208.195 16.8989Z" fill="white"/>
<path d="M150.644 42.2457V36.8408C152.023 37.0931 153.348 37.3671 154.681 37.5721C158.846 38.2107 163.024 38.5833 167.223 37.9486C168.047 37.8224 168.855 37.4775 169.624 37.1266C170.393 36.7757 170.672 36.0622 170.586 35.2442C170.499 34.4261 170.032 33.8643 169.216 33.75C167.331 33.4662 165.445 33.1764 163.549 32.997C160.789 32.7368 158.051 32.4057 155.426 31.4773C154.835 31.2635 154.263 30.9997 153.717 30.6888C150.78 29.037 149.713 26.5494 150.448 23.2556C151.152 20.1017 153.405 18.5248 156.244 17.6122C159.547 16.5556 162.965 16.4551 166.397 16.6266C169.364 16.7725 172.311 17.0484 175.206 17.7817C175.797 17.9315 176.012 18.1759 175.995 18.8008C175.945 20.3994 175.979 22 175.979 23.6853C174.796 23.431 173.736 23.161 172.657 22.9737C168.506 22.2503 164.329 21.8423 160.123 22.2956C159.177 22.3981 158.24 22.8101 157.363 23.2043C156.537 23.5749 156.303 24.3693 156.378 25.2327C156.453 26.096 156.892 26.7071 157.714 26.8549C159.537 27.1841 161.371 27.4896 163.214 27.6591C165.993 27.9174 168.778 28.0928 171.473 28.8931C171.857 29.0074 172.234 29.1533 172.608 29.2991C175.153 30.2847 176.625 32.1021 176.748 34.8558C176.868 37.4814 175.975 39.6871 173.742 41.2246C171.652 42.6616 169.265 43.2687 166.793 43.4974C161.599 43.9764 156.443 43.724 151.357 42.4921C151.188 42.4507 151.018 42.4014 150.851 42.3462C150.778 42.3198 150.709 42.2861 150.644 42.2457V42.2457Z" fill="white"/>
<path d="M120.353 43.9924C112.705 43.9924 106.6 37.8168 106.604 30.082C106.604 22.6547 112.936 16.4022 120.434 16.42C127.972 16.4357 134.201 22.6882 134.193 30.2318C134.193 32.0457 133.835 33.8418 133.139 35.5167C132.442 37.1916 131.422 38.7123 130.136 39.9912C128.849 41.2701 127.323 42.2821 125.644 42.9688C123.965 43.6555 122.167 44.0034 120.353 43.9924ZM120.436 38.2603C124.804 38.2603 128.441 34.6117 128.453 30.2161C128.464 25.85 124.759 22.1935 120.328 22.2013C116.019 22.2013 112.364 25.8716 112.342 30.2082C112.323 34.5822 116.019 38.2603 120.436 38.2603V38.2603Z" fill="white"/>
<path d="M76.5235 43.2161C76.5235 40.009 76.488 36.871 76.5353 33.7349C76.5708 31.5548 76.5353 29.3471 76.8547 27.2024C77.8994 20.2502 84.0927 15.6574 91.0825 16.501C97.6385 17.2895 102.288 22.0597 102.604 28.6749C102.823 33.2361 102.665 37.8171 102.677 42.3882V43.2003H96.6845V42.3409C96.6845 38.2961 96.6963 34.2592 96.6845 30.2065C96.6845 28.1979 96.2548 26.2819 94.8888 24.7444C92.9176 22.5288 90.4044 21.971 87.6112 22.72C84.7137 23.5085 83.1939 25.5723 82.7405 28.4364C82.5434 29.6427 82.5592 30.8885 82.5434 32.1165C82.5217 35.5325 82.5434 38.9485 82.5434 42.3665V43.2161H76.5235Z" fill="white"/>
<path d="M138.738 17.061H144.604V43.3109H138.738V17.061Z" fill="white"/>
</svg>
