<svg width="179" height="51" viewBox="0 0 179 51" fill="none" xmlns="http://www.w3.org/2000/svg">
<path fill-rule="evenodd" clip-rule="evenodd" d="M55.5611 37.8203C57.6287 37.8203 59.1055 36.9634 59.1055 35.3159C59.1055 33.6684 57.8999 32.733 55.8987 32.733H53.8251V37.8203H55.5611ZM65.7241 48.4478C64.897 48.6554 64.0444 48.7428 63.1924 48.7073C56.5618 48.7073 58.7921 41.6827 54.7534 41.6827H53.8131V48.5322H48.6532V28.6172H56.0856C61.4202 28.6172 64.1147 30.4276 64.1147 35.1288C64.1194 36.1722 63.8322 37.1961 63.2857 38.0845C62.7392 38.973 61.9552 39.6905 61.0224 40.1558C62.6137 42.0629 62.4992 44.4165 64.826 44.4165H65.7121L65.7241 48.4478Z" fill="white"/>
<path fill-rule="evenodd" clip-rule="evenodd" d="M75.6404 44.4406C77.3161 44.4406 78.0817 43.8371 78.0817 42.2801C78.0817 40.7231 77.0087 40.0895 75.5017 40.0895H73.0062V44.4406H75.6404ZM75.0376 36.5349C76.7375 36.5349 77.3885 35.853 77.3885 34.6098C77.3885 33.3666 76.5144 32.733 74.6699 32.733H73.0243V36.5349H75.0376ZM82.271 39.0756C82.8379 39.5233 83.2923 40.0976 83.5979 40.7525C83.9035 41.4074 84.0519 42.1248 84.0312 42.8474C84.0312 47.0718 80.9328 48.5322 77.2739 48.5322H67.8403V28.6172H76.2371C80.2999 28.6172 82.687 30.1199 82.687 33.9882C82.687 37.3919 80.5531 37.9048 79.4741 37.9048V37.9652C80.4954 38.0354 81.4691 38.4237 82.259 39.0756H82.271Z" fill="white"/>
<path fill-rule="evenodd" clip-rule="evenodd" d="M86.4902 48.5322V28.6353H91.6501V44.4406H99.631V48.5322H86.4902Z" fill="white"/>
<path fill-rule="evenodd" clip-rule="evenodd" d="M111.97 45.6355C114.019 45.6355 115.749 44.9837 115.749 42.6181C115.749 40.4093 114.104 39.6006 111.946 39.6006H108.166V45.6355H111.97ZM111.62 37.0237C113.863 37.0237 114.598 35.9133 114.598 34.2658C114.598 32.6183 113.495 31.5381 111.054 31.5381H108.154V37.0237H111.62ZM104.58 48.5322V28.6172H111.861C115.924 28.6172 118.275 30.1802 118.275 33.8434C118.275 37.5065 116.171 38.0255 115.207 38.0255V38.0798C115.82 38.1099 116.421 38.2613 116.975 38.5254C117.529 38.7895 118.026 39.161 118.435 39.6184C118.845 40.0758 119.16 40.6101 119.362 41.1902C119.565 41.7704 119.65 42.3849 119.613 42.9983C119.613 47.1201 116.316 48.5081 112.627 48.5081L104.58 48.5322Z" fill="white"/>
<path fill-rule="evenodd" clip-rule="evenodd" d="M127.136 40.6624H132.501L129.801 33.0464L127.136 40.6624V40.6624ZM133.435 43.4505H126.166L124.406 48.562H120.662L127.986 28.647H131.603L138.927 48.562H135.208L133.435 43.4505Z" fill="white"/>
<path fill-rule="evenodd" clip-rule="evenodd" d="M152.857 48.5322L145.051 35.1469V48.5322H141.47V28.6353H145.22L153.056 42.4491V28.6353H156.6V48.5322H152.857Z" fill="white"/>
<path fill-rule="evenodd" clip-rule="evenodd" d="M177.324 45.8648C174.756 45.8648 174.69 41.5559 172.586 39.4316C171.824 38.5755 170.839 37.9487 169.741 37.6212L177.324 28.6353H172.755L165.154 37.4884V28.6353H161.573V48.5503H165.154V42.9741L167.366 40.3731H167.595C171.815 40.3731 170.434 48.7012 176.227 48.7012C176.864 48.7098 177.5 48.6532 178.126 48.5322V45.8648H177.324Z" fill="white"/>
<path fill-rule="evenodd" clip-rule="evenodd" d="M10.2378 10.3011V0.971191H0.75V19.6431C2.83813 15.5969 6.16217 12.324 10.2378 10.3011V10.3011Z" fill="white"/>
<path fill-rule="evenodd" clip-rule="evenodd" d="M10.2378 12.981C7.35466 14.6391 4.9593 17.0292 3.29348 19.9102C1.62767 22.7911 0.75033 26.061 0.75 29.3899V46.891V50.6929H10.2378V29.3838C10.2395 27.0738 11.0839 24.844 12.6125 23.1136C14.1411 21.3832 16.2484 20.2715 18.5382 19.9875V10.4766C15.6154 10.6588 12.7745 11.516 10.2378 12.981Z" fill="white"/>
<path fill-rule="evenodd" clip-rule="evenodd" d="M20.9197 10.4766V19.9875C22.4418 20.1755 23.8954 20.7313 25.1552 21.607C26.415 22.4826 27.4433 23.6519 28.1512 25.0139C28.8592 26.376 29.2257 27.89 29.2192 29.4254C29.2127 30.9608 28.8332 32.4716 28.1137 33.8276C27.3941 35.1835 26.3559 36.344 25.0887 37.2088C23.8215 38.0737 22.3631 38.617 20.8395 38.792C19.3158 38.967 17.7725 38.7684 16.3425 38.2133C14.9126 37.6582 13.6389 36.7633 12.6313 35.6058V46.9513C15.175 47.9892 17.9138 48.4605 20.6576 48.3326C23.4014 48.2046 26.0846 47.4805 28.5209 46.2105C30.9572 44.9404 33.0884 43.1549 34.7664 40.9777C36.4445 38.8005 37.6293 36.2839 38.2386 33.6024C38.8479 30.921 38.8672 28.1389 38.295 25.4492C37.7229 22.7595 36.573 20.2267 34.9253 18.0264C33.2775 15.8262 31.1713 14.0113 28.7528 12.7076C26.3343 11.4038 23.6614 10.6426 20.9197 10.4766V10.4766Z" fill="white"/>
</svg>
