<svg width="598" height="66" viewBox="0 0 598 66" fill="none" xmlns="http://www.w3.org/2000/svg">
<path d="M483.005 38.0271C478.377 42.2172 453.804 55.0918 437.611 55.9605C433.546 56.1697 434.553 53.3416 435.637 52.0943C435.802 51.9013 450.899 33.4337 478.931 34.4045C478.931 34.4045 486.271 34.799 483.005 38.0345M299.257 44.5443C300.118 43.8129 312.251 33.8886 330.934 33.2654C332.726 33.2033 336.432 33.6506 333.775 36.547C330.354 40.2685 316.635 44.821 300.226 45.9845C298.216 46.1531 297.964 45.6468 299.226 44.5528H299.248L299.257 44.5443ZM591.417 54.0065C588.96 54.7755 586.41 55.1991 583.838 55.2527C581.513 55.1829 579.257 54.398 577.39 52.9951C570.503 48.1425 569.18 47.1022 565.282 43.6575C564.041 42.5634 564.98 41.9789 565.999 41.563C567.431 40.9549 568.9 40.4294 570.396 39.9917C573.3 39.0888 575.395 39.2356 576.967 40.0991C578.277 40.8154 585.178 43.9576 586.333 38.3563C587.08 32.903 577.796 32.6875 577.796 32.6875C575.002 32.5554 572.205 32.5867 569.411 32.7945C565.845 33.0949 558.51 33.8436 553.44 36.4312C549.773 38.2201 550.706 35.792 551.832 34.4901C552.957 33.1871 567.555 16.5235 573.786 9.78094C577.22 6.06057 574.187 5.76791 573.262 5.85274C572.954 5.87525 571.165 5.89116 561.854 7.58566C549.128 9.89789 542.658 16.607 538.829 20.8144C529.34 31.2546 522.299 41.2305 517.616 47.5022C516.529 48.9661 502.041 55.2774 495.969 56.2855C490.054 57.2722 494.429 52.371 494.429 52.371C494.429 52.371 509.104 35.4071 512.722 31.2697C516.246 27.2468 510.729 26.6474 508.824 26.5851C505.914 26.4928 489.609 26.1455 474.717 27.2083C425.972 30.683 410.812 50.7998 410.812 50.7998C410.812 50.7998 389.442 55.8778 385.893 56.1697C382.341 56.4623 383.62 54.1674 384.013 53.6581C384.213 53.4061 401.078 31.2922 401.723 30.5372C402.217 30.0598 402.863 29.7907 403.549 29.7822C403.549 29.7822 419.604 29.8904 421.751 29.8904C423.9 29.8904 425.55 28.8427 425.418 26.123C425.256 22.8861 421.803 22.9485 420.664 22.8798C419.615 22.8186 414.641 22.6256 410.765 22.5636C407.754 22.5163 409.802 20.4133 409.802 20.4133C409.802 20.4133 416.305 12.7172 419.648 9.06576C422.33 6.138 420.002 5.8066 417.869 5.98341C417.068 6.04573 414.402 6.31479 409.256 7.03218C390.499 9.75101 383.727 20.4916 382.874 21.685C382.009 22.8724 381.636 22.7566 381.164 22.7717C380.826 22.7717 365.103 22.6481 362.523 22.7717C360.681 22.8488 358.139 23.326 358.131 26.1541C358.131 29.721 363.192 29.5439 364.109 29.5892C365.018 29.6276 371.888 29.9527 374.038 29.99C375.773 30.0213 375.424 30.6069 375.171 30.9608C373.969 32.5952 369.522 38.5902 366.651 42.4937C365.078 44.6225 364.471 45.1129 362.523 45.8237C340.475 53.9121 320.549 57.3579 304.42 56.6254C296.029 56.232 297.308 51.778 297.308 51.778C297.308 51.778 326.555 51.54 342.701 45.6383C359.08 39.6519 360.988 26.8468 334.56 26.3386C302.232 26.6925 284.137 37.2334 278.057 41.7324C275.076 43.9361 273.868 45.6845 270.978 49.837C268.884 52.8965 255.782 55.6549 252.246 56.4623C248.711 57.2722 251.275 54.0441 251.275 54.0441L261.76 39.6593C261.76 39.6593 269.932 29.3199 254.733 26.939C236.092 24.0274 215.818 32.3099 210.141 35.0211C206.997 36.5311 207.481 34.9288 208.769 33.3642C217.838 22.3554 224.701 14.7508 229.814 8.92629C231.788 6.67638 231.055 5.50626 228.395 5.65204C224.239 6.00593 220.1 6.56161 216.005 7.33144C203.108 9.61265 196.022 17.0317 192.455 22.0551C190.79 24.4736 178.768 40.3758 177.358 42.2417C175.593 44.7911 172.441 46.0007 172.441 46.0007C172.441 46.0007 152.891 55.2077 113.968 57.3096C91.9142 58.0498 72.604 55.4136 60.2859 51.8851C44.9794 47.5097 40.6959 38.6116 58.9991 27.8947C82.6766 14.043 104.384 10.9371 120.5 9.45807C139.311 7.73255 152.221 10.0138 158.869 11.261C167.136 12.832 177.958 10.106 182.155 7.55465C184.944 5.86015 184.544 4.71914 183.08 4.03469C182.094 3.58004 180.129 3.27969 178.92 3.14049C171.918 2.33168 147.337 -0.850304 112.504 0.93013C64.2211 3.37853 1.60486 20.0281 0.0339202 40.7533C-2.29409 71.3554 127.194 69.6697 166.741 57.1328C169.999 56.0837 169.23 57.3579 168.839 58.1033C168.353 58.9989 168.313 59.0277 166.648 61.6551C165.348 63.6983 166.326 64.7311 167.836 64.6987C169.336 64.6773 182.801 64.02 185.067 63.8053C187.332 63.5887 188.642 61.8857 189.256 61.1167C191.522 58.3361 192.878 56.5642 195.073 54.3818C201.705 47.7809 228.914 36.8013 235.26 36.2307C239.04 35.8928 237.594 37.3783 237.187 37.9648C236.778 38.5493 226.842 51.971 226.1 53.2666C225.362 54.5611 223.174 57.4243 224.275 59.8373C229.584 70.7925 271.582 59.3764 271.972 59.3118C272.499 59.2048 273.083 58.8347 275.869 60.3609C297.686 72.3723 353.278 57.58 355.751 56.7166C357.848 56.1944 357.661 57.0169 357.716 58.1195C357.853 61.1008 364.655 70.9243 406.582 59.4063C409.173 58.6041 409.426 59.3687 409.426 59.3687C410.112 60.5078 412.19 64.9615 428.553 64.554C447.671 64.0821 462.961 57.8513 466.288 56.3014C468.841 55.122 468.808 56.9183 468.794 57.8727C468.684 64.4146 482.497 65.2157 494.135 63.7197C500.13 62.9507 503.573 62.1732 505.038 61.355C506.499 60.5377 507.13 60.5775 507.278 61.7624C507.454 63.3817 509.73 63.2189 511.698 63.2348C513.117 63.2348 525.664 62.9883 527.382 62.9507C530.311 62.8971 530.701 62.6794 533.545 58.7199C535.733 55.6763 538.382 51.6257 539.784 49.8046C540.833 48.2957 542.057 48.982 542.304 49.1053C542.551 49.2289 560.012 59.3687 567.901 62.6344C573.531 64.9692 581.911 64.168 587.914 62.5562C593.915 60.9473 595.971 58.9827 595.971 58.9827C595.971 58.9827 599.182 56.1944 597.544 54.0356C595.817 51.8939 593.281 53.3276 591.433 53.9818" fill="#100F0D"/>
</svg>
